<svg width="60" height="60" xmlns="http://www.w3.org/2000/svg">

 <g>
  <title>Layer 1</title>
  <rect stroke="null" stroke-width="0" id="svg_22" height="4.24286" width="14.49664" y="4.09396" x="6.77852" fill="#ffffff"/>
  <rect stroke="null" stroke-width="0" id="svg_23" height="30.1489" width="15.16779" y="25.57047" x="6.91275" fill="#ffffff"/>
  <rect stroke="null" stroke-width="0" id="svg_24" height="19.6791" width="9.66443" y="9.19463" x="24.22819" fill="#ffffff"/>
  <rect stroke="null" stroke-width="0" id="svg_25" height="20.48447" width="9.93289" y="8.38926" x="13.62416" fill="#ffffff"/>
  <g id="svg_28">
   <rect transform="rotate(27 9.5987 18.7505)" stroke="null" stroke-width="0" id="svg_26" height="20.6764" width="8.99845" y="8.41234" x="5.09948" fill="#ffffff"/>
   <rect transform="rotate(27 7.30804 15.3446)" stroke="null" stroke-width="0" id="svg_27" height="20.6764" width="5.27375" y="5.00642" x="4.67116" fill="#ffffff"/>
  </g>
  <g stroke="null" id="svg_21">
   <path stroke="null" id="svg_1" fill-rule="evenodd" fill="#ff5a5a" d="m7.18071,23.13871c0,2.07836 1.09788,3.89945 2.74562,4.91707c1.64728,-1.01763 2.74562,-2.83871 2.74562,-4.91707l0,-2.88824l3.46561,-11.38236l-3.18082,0l-5.77602,11.38236l0,2.88824zm0,0"/>
   <path stroke="null" id="svg_2" fill-rule="evenodd" fill="#ff9d21" d="m18.73275,23.13871c0,2.07836 1.09834,3.89945 2.74562,4.91661c1.64728,-1.01717 2.74562,-2.83871 2.74562,-4.91661l0,-2.88824l1.1552,-11.38236l-3.18082,0l-3.46561,11.38236l0,2.88824zm0,0"/>
   <path stroke="null" id="svg_3" fill-rule="evenodd" fill="#ff5a5a" d="m30.28525,23.13871c0,2.07836 1.09788,3.89945 2.74516,4.91661c1.64728,-1.01717 2.74562,-2.83825 2.74562,-4.91661l0,-2.88824l-1.1552,-11.38236l-3.18037,0l-1.1552,11.38236l0,2.88824zm0,0"/>
   <path stroke="null" id="svg_4" fill-rule="evenodd" fill="#ff9d21" d="m34.62082,8.86811l1.1552,11.38236l0,2.88824c0,3.19 2.58602,5.77556 5.77602,5.77556c3.19045,0 5.77602,-2.58557 5.77602,-5.77556l0,-2.88824l-3.46515,-11.38236l-9.24209,0zm0,0"/>
   <path stroke="null" id="svg_5" fill-rule="evenodd" fill="#ff5a5a" d="m43.86291,8.86811l3.46561,11.38236l0,2.88824c0,3.19 2.58557,5.77556 5.77602,5.77556s5.77602,-2.58557 5.77602,-5.77556l0,-2.88824l-5.77648,-11.38236l-9.24117,0zm0,0"/>
   <g stroke="null" id="svg_6" fill="#ffdaae">
    <path stroke="null" id="svg_7" fill-rule="evenodd" d="m18.63507,4.17163l0,4.69649l34.46902,0l0,-4.69649l-34.46902,0zm0,0"/>
    <path stroke="null" id="svg_8" d="m35.86957,24.17101c-0.06053,-0.33523 -0.09355,-0.6801 -0.09355,-1.0323c0,3.15835 -2.53604,5.72328 -5.68201,5.77327c0.03119,0.00046 0.06191,0.00229 0.09355,0.00229c2.83734,0 5.19544,-2.04626 5.68201,-4.74326zm0,0"/>
    <path stroke="null" id="svg_9" d="m47.42208,24.16964c-0.06054,-0.33478 -0.09401,-0.67872 -0.09401,-1.03138c0,3.15881 -2.53558,5.72328 -5.68201,5.77373c0.03118,0.00046 0.06237,0.00229 0.09355,0.00229c2.83779,0 5.1959,-2.04672 5.68247,-4.74464zm0,0"/>
    <path stroke="null" id="svg_10" d="m30,28.91427c0.03164,0 0.06237,-0.00183 0.09401,-0.00229c-3.14689,-0.04999 -5.68247,-2.61492 -5.68247,-5.77327c0,0.3522 -0.03348,0.69707 -0.09401,1.0323c0.48703,2.69701 2.84467,4.74326 5.68247,4.74326zm0,0"/>
    <path stroke="null" id="svg_11" d="m41.55204,28.91427c0.03164,0 0.06237,-0.00183 0.09401,-0.00229c-3.14689,-0.04999 -5.68247,-2.61492 -5.68247,-5.77327c0,0.3522 -0.03348,0.69707 -0.09401,1.0323c0.48703,2.69701 2.84513,4.74326 5.68247,4.74326zm0,0"/>
    <path stroke="null" id="svg_12" d="m39.01646,51.13189l9.39205,0l0,4.69649l-9.39205,0l0,-4.69649zm0,0"/>
    <path stroke="null" id="svg_13" d="m47.42208,24.16964c-0.48657,2.69792 -2.84467,4.74464 -5.68247,4.74464c-0.03118,0 -0.06237,-0.00183 -0.09355,-0.00229c-0.03164,0.00046 -0.06237,0.00229 -0.09401,0.00229c-2.83734,0 -5.19544,-2.04626 -5.68247,-4.74326c-0.48657,2.69701 -2.84467,4.74326 -5.68201,4.74326c-0.03164,0 -0.06237,-0.00183 -0.09355,-0.00229c-0.03164,0.00046 -0.06237,0.00229 -0.09401,0.00229c-2.83779,0 -5.19544,-2.04626 -5.68247,-4.74372c-0.48657,2.69746 -2.84467,4.74372 -5.68247,4.74372l0,5.78198l29.77345,0l0,21.13212l4.69603,0l0,-26.9141c-2.83825,0 -5.1959,-2.04672 -5.68247,-4.74464zm0,0"/>
    <path stroke="null" id="svg_14" d="m23.33109,51.13189l-4.69603,0l0,4.69649l20.3814,0l0,-4.69649l-15.68537,0zm0,0"/>
   </g>
   <path stroke="null" id="svg_15" fill-rule="evenodd" fill="#96c8eb" d="m39.01646,34.69626l-18.10768,0l0,16.43563l18.10768,0l0,-16.43563zm0,0"/>
   <path stroke="null" id="svg_16" fill-rule="evenodd" fill="#bf9a94" d="m39.01646,34.69626l0,21.13212l9.39205,0l0,-21.13212l-9.39205,0zm0,0"/>
   <path stroke="null" id="svg_17" fill="#000001" d="m59.92754,19.71896l-5.64945,-11.13243l0,-4.41491c0,-0.64846 -0.52509,-1.17401 -1.17401,-1.17401l-46.20862,0c-0.64846,0 -1.17401,0.52555 -1.17401,1.17401l0,4.41537l-5.64899,11.13197c-0.08346,0.16464 -0.12703,0.3467 -0.12703,0.53151l0,2.88824c0,3.43168 2.50118,6.28873 5.77602,6.84868l0,24.66652l-1.20152,0c-0.64845,0 -1.17401,0.52555 -1.17401,1.17401s0.52555,1.17401 1.17401,1.17401l2.36636,0c0.00275,0 0.00596,0.00046 0.00917,0.00046l48.58461,0c0.648,0 1.17401,-0.52555 1.17401,-1.17401c0,-0.64846 -0.52601,-1.17401 -1.17401,-1.17401l-1.20152,0l0,-24.66698c3.27484,-0.55995 5.77602,-3.417 5.77602,-6.84868l0,-2.88824c0,-0.18481 -0.04357,-0.36688 -0.12703,-0.53151zm-51.85807,-14.37333l43.86061,0l0,2.34847l-43.86061,0l0,-2.34847zm38.08505,17.79308c0,2.53741 -2.0646,4.60156 -4.60247,4.60156c-2.53741,0 -4.60201,-2.06414 -4.60201,-4.60156l0,-2.88824c0,-0.0399 -0.00183,-0.07934 -0.00596,-0.11878l-1.02405,-10.08958l7.07293,0l3.16156,10.38308l0,2.71351zm-11.5525,0c0,2.53741 -2.0646,4.60156 -4.60201,4.60156s-4.60201,-2.06414 -4.60201,-4.60156l0,-2.82908l1.04239,-10.26751l7.11971,0l1.04193,10.26751l0,2.82908zm-11.55204,-2.88824l0,2.88824c0,2.53741 -2.0646,4.60156 -4.60201,4.60156c-2.53787,0 -4.60201,-2.06414 -4.60201,-4.60156l0,-2.71351l3.1611,-10.38308l7.07293,0l-1.02405,10.08958c-0.00413,0.03944 -0.00596,0.07888 -0.00596,0.11878zm-20.75653,2.88824l0,-2.60758l5.32293,-10.48901l6.93627,0l-3.0038,9.86624c-0.03394,0.11098 -0.05136,0.22609 -0.05136,0.34211l0,2.88824c0,2.53741 -2.0646,4.60156 -4.60201,4.60156s-4.60201,-2.06414 -4.60201,-4.60156zm5.77602,6.84868c1.91281,-0.32698 3.56192,-1.43678 4.60247,-2.98867c1.24784,1.86144 3.37114,3.08956 5.77602,3.08956c2.40442,0 4.52726,-1.22812 5.77556,-3.08956c1.24876,1.86144 3.3716,3.08956 5.77648,3.08956c2.40442,0 4.52772,-1.22812 5.77556,-3.08956c1.24876,1.8619 3.3716,3.08956 5.77648,3.08956c2.40488,0 4.52772,-1.22812 5.77602,-3.08956c1.04055,1.55189 2.68921,2.66169 4.60201,2.98867l0,24.66698l-2.34801,0l0,-19.95811c0,-0.64846 -0.52555,-1.17401 -1.17401,-1.17401l-36.81657,0c-0.64846,0 -1.17401,0.52555 -1.17401,1.17401l0,16.43563c0,0.64846 0.52555,1.17401 1.17401,1.17401l26.25097,0l0,2.34847l-29.77299,0l0,-24.66698zm4.69603,17.33311l11.45023,-11.45023l4.09022,0l-2.23245,2.23199c-0.45814,0.45814 -0.45814,1.20152 0,1.66012c0.2293,0.2293 0.52968,0.34395 0.83006,0.34395c0.30084,0 0.60076,-0.11465 0.83006,-0.34349l3.89302,-3.89257l6.21536,0l0,14.08762l-25.07651,0l0,-2.63739zm0,-3.3207l0,-8.12954l8.12954,0l-8.12954,8.12954zm27.42498,10.65457l0,-8.21851l1.17401,0c0.64846,0 1.17401,-0.52555 1.17401,-1.17401c0,-0.648 -0.52555,-1.17401 -1.17401,-1.17401l-1.17401,0l0,-8.21759l7.04404,0l0,18.78411l-7.04404,0zm17.51609,-31.51566c0,2.53741 -2.0646,4.60156 -4.60201,4.60156s-4.60201,-2.06414 -4.60201,-4.60156l0,-2.88824c0,-0.11602 -0.01743,-0.23113 -0.0509,-0.34211l-3.00426,-9.86624l6.93627,0l5.32293,10.48901l0,2.60758zm0,0"/>
   <path stroke="null" id="svg_18" fill="#000001" d="m23.69109,40.48512l-0.01972,0.01926c-0.45997,0.45722 -0.46181,1.20061 -0.00504,1.66058c0.22976,0.23067 0.53105,0.34624 0.83281,0.34624c0.29946,0 0.59847,-0.11373 0.82777,-0.34165l0.01972,-0.01926c0.45951,-0.45722 0.46181,-1.2006 0.00459,-1.66058c-0.45722,-0.45951 -1.2006,-0.46181 -1.66012,-0.00459zm0,0"/>
   <path stroke="null" id="svg_19" fill="#000001" d="m1.14696,54.65391l-0.02752,0c-0.64846,0 -1.17401,0.52555 -1.17401,1.17401s0.52555,1.17401 1.17401,1.17401l0.02752,0c0.64845,0 1.17401,-0.52555 1.17401,-1.17401s-0.52555,-1.17401 -1.17401,-1.17401zm0,0"/>
   <path stroke="null" id="svg_20" fill="#000001" d="m58.88056,54.65437l-0.02752,0c-0.64846,0 -1.17401,0.52555 -1.17401,1.17401c0,0.64845 0.52555,1.17401 1.17401,1.17401l0.02752,0c0.64846,0 1.17401,-0.52555 1.17401,-1.17401c0,-0.64846 -0.52555,-1.17401 -1.17401,-1.17401zm0,0"/>
  </g>
 </g>
</svg>