<?xml version="1.0" standalone="no"?>
<!DOCTYPE svg PUBLIC "-//W3C//DTD SVG 20010904//EN"
 "http://www.w3.org/TR/2001/REC-SVG-20010904/DTD/svg10.dtd">
<svg version="1.0" xmlns="http://www.w3.org/2000/svg"
 width="460.000000pt" height="460.000000pt" viewBox="0 0 460.000000 460.000000"
 preserveAspectRatio="xMidYMid meet">
<metadata>
Created by potrace 1.11, written by Peter Selinger 2001-2013
</metadata>
<g transform="translate(0.000000,460.000000) scale(0.100000,-0.100000)"
fill="#000000" stroke="none">
<path d="M436 4548 c-3 -29 -7 -693 -9 -1475 -3 -1192 -2 -1427 10 -1460 7
-21 21 -58 29 -83 80 -225 272 -517 470 -716 122 -122 124 -123 270 -234 94
-72 147 -106 292 -193 96 -57 304 -156 527 -251 127 -54 243 -107 259 -119 27
-19 30 -19 55 -3 14 9 82 44 151 78 529 256 639 315 845 456 71 49 161 117
175 133 3 3 14 12 26 20 49 34 169 148 249 239 159 180 280 381 357 595 l33
90 3 1488 2 1487 -1869 0 -1870 0 -5 -52z m2092 -504 c18 -5 22 -13 22 -43 0
-24 11 -54 31 -87 l32 -49 -21 -100 c-12 -55 -33 -149 -46 -210 -13 -60 -31
-144 -40 -185 -33 -148 -33 -150 -67 -150 l-31 0 6 93 c16 216 39 423 50 437
20 25 36 69 36 98 -1 40 -22 62 -61 62 -40 0 -52 -7 -68 -37 -16 -32 -13 -62
12 -113 l22 -45 -39 -155 c-21 -85 -42 -159 -46 -163 -4 -5 -12 18 -19 50 -6
32 -22 107 -36 167 -25 104 -25 112 -11 168 18 70 7 114 -32 129 -75 29 -124
-54 -84 -143 11 -25 25 -85 31 -134 34 -259 41 -324 44 -374 l2 -54 -40 -7
c-22 -4 -43 -3 -46 3 -3 5 -12 48 -18 96 -7 48 -17 110 -22 137 -5 28 -20 130
-34 229 -25 172 -25 180 -9 223 14 36 16 54 8 93 -10 45 -9 49 10 54 102 27
217 -30 235 -116 l7 -32 33 49 c35 51 52 67 105 98 33 18 48 20 84 11z m-595
-94 c-4 -28 0 -48 14 -72 12 -20 22 -63 26 -105 7 -67 6 -71 -15 -76 -26 -7
-38 7 -38 43 0 17 -14 40 -40 65 l-41 40 -29 -34 c-17 -18 -30 -36 -30 -39 0
-25 67 -175 79 -179 9 -2 32 -11 51 -18 19 -7 49 -18 66 -25 30 -11 31 -14 48
-113 10 -56 24 -135 33 -176 8 -40 11 -77 6 -81 -4 -5 -43 -22 -86 -39 l-78
-30 -32 19 c-26 16 -31 25 -29 52 2 18 -9 62 -23 97 -14 36 -25 68 -25 72 0 5
17 13 37 18 43 12 47 9 64 -61 8 -34 20 -54 41 -69 25 -18 32 -19 39 -8 19 29
18 57 -4 138 l-22 84 -75 29 c-158 62 -148 54 -142 104 3 29 0 51 -10 67 -9
12 -35 58 -58 100 -41 76 -41 79 -24 98 34 38 85 62 137 64 40 2 54 8 62 23
21 39 38 52 70 52 33 0 33 0 28 -40z m842 -65 c6 -20 -6 -74 -44 -195 -26 -81
-26 -78 4 -72 32 6 71 52 113 135 49 95 66 110 115 104 51 -7 76 -29 57 -51
-7 -9 -21 -16 -30 -16 -23 0 -60 -46 -60 -73 0 -11 -7 -47 -16 -79 -21 -73
-58 -108 -115 -108 -43 0 -53 -19 -17 -35 40 -19 44 -38 20 -113 -24 -73 -28
-132 -12 -162 8 -15 4 -22 -24 -39 -71 -44 -84 -18 -56 106 29 122 24 173 -15
173 -6 0 -29 -61 -51 -135 l-39 -135 -30 6 c-56 11 -56 1 1 234 7 30 27 118
44 195 46 207 51 227 71 261 11 17 19 44 19 60 l0 28 30 -34 c16 -19 32 -44
35 -55z m453 43 c6 -6 26 -12 44 -12 38 -1 45 -16 19 -47 -15 -18 -32 -25 -76
-29 l-58 -5 47 -33 46 -33 -17 -30 c-10 -17 -26 -29 -38 -29 -30 0 -65 28 -65
52 0 11 -14 36 -30 55 -25 28 -29 38 -19 49 6 8 21 14 32 14 11 0 33 14 49 30
30 32 47 37 66 18z m264 -198 c8 -12 24 -20 39 -20 36 0 43 -23 15 -49 -22
-21 -25 -21 -84 -7 -34 8 -62 12 -62 9 0 -2 16 -21 35 -41 19 -20 35 -41 35
-46 0 -16 -32 -46 -49 -46 -31 0 -62 31 -60 59 2 14 -5 40 -14 58 -26 49 -22
63 16 63 17 0 46 9 62 20 38 25 52 25 67 0z m260 -268 c7 -9 25 -23 41 -29 31
-14 34 -30 10 -49 -25 -18 -44 -17 -99 6 -51 22 -66 20 -42 -7 9 -10 23 -32
32 -50 15 -31 15 -32 -6 -47 -29 -21 -41 -20 -69 2 -17 14 -23 31 -25 68 -2
27 -4 63 -6 79 -3 29 -2 30 33 27 20 -1 47 2 60 7 36 15 57 13 71 -7z m106
-304 c7 -7 33 -15 60 -18 42 -4 47 -8 50 -33 2 -15 12 -32 23 -37 31 -17 24
-47 -13 -54 -29 -6 -37 -2 -77 39 -24 25 -45 44 -46 43 -2 -2 1 -28 6 -58 9
-58 3 -70 -35 -70 -45 0 -80 82 -41 96 10 4 15 20 15 48 0 24 3 46 7 49 10 11
38 8 51 -5z m-1293 -17 c138 -31 259 -87 372 -172 l52 -39 -22 -36 c-12 -19
-26 -43 -32 -52 -64 -111 -169 -261 -178 -255 -7 4 -28 17 -48 29 -65 40 -160
75 -248 91 -72 13 -100 13 -171 3 -99 -14 -193 -48 -268 -98 -29 -19 -54 -33
-56 -31 -9 11 -126 211 -126 214 0 3 -18 34 -41 71 -22 36 -39 70 -37 74 6 16
93 82 152 114 74 42 168 74 291 100 60 12 285 4 360 -13z m-875 -96 c29 -15
46 -47 35 -65 -3 -5 -32 -8 -64 -7 -53 2 -63 -1 -98 -29 -49 -40 -92 -127
-105 -212 -26 -165 50 -286 209 -337 l52 -16 -42 -59 c-23 -32 -47 -67 -53
-77 -10 -17 -16 -15 -88 21 -110 56 -176 143 -217 284 -24 86 -24 153 1 235
27 86 86 163 163 214 98 64 152 76 207 48z m1505 -16 c77 -38 160 -121 197
-197 31 -62 33 -73 32 -167 0 -89 -4 -108 -31 -171 -44 -104 -109 -184 -180
-221 -98 -52 -94 -52 -147 27 -46 69 -50 90 -20 90 8 0 40 11 69 26 100 47
165 151 165 264 0 61 -32 164 -68 214 -45 64 -75 81 -145 81 -73 0 -86 19 -40
61 24 22 35 25 74 22 25 -3 67 -16 94 -29z m777 -190 c7 -11 33 -29 57 -40 40
-17 43 -21 38 -49 -4 -16 -2 -32 3 -35 6 -3 10 -19 10 -34 0 -27 -2 -28 -32
-22 -28 5 -38 16 -63 66 l-29 60 -14 -60 c-7 -32 -15 -61 -17 -63 -2 -2 -17
-1 -34 3 -25 5 -32 13 -37 43 -6 30 -3 39 19 56 14 12 32 38 41 59 17 41 39
48 58 16z m-2695 -124 c-9 -57 17 -204 48 -270 48 -102 201 -235 270 -235 8 0
2 -22 -17 -60 -26 -56 -30 -60 -56 -54 -169 37 -264 131 -299 297 -16 80 -16
90 0 178 15 87 44 179 55 179 2 0 2 -16 -1 -35z m2208 -46 c23 -67 27 -97 27
-189 0 -102 -2 -114 -32 -177 -17 -38 -43 -81 -58 -97 -49 -52 -134 -96 -214
-110 -33 -6 -38 -4 -38 11 0 10 -6 27 -14 38 -7 11 -16 30 -20 41 -5 18 -2 23
20 28 66 17 185 118 232 196 40 68 62 158 62 252 0 48 2 88 4 88 2 0 16 -36
31 -81z m-1102 12 c61 -23 117 -128 117 -219 0 -94 -84 -222 -145 -222 -168 0
-216 337 -61 431 35 21 53 23 89 10z m1613 -257 c8 -20 23 -38 33 -41 27 -7
47 -49 32 -67 -7 -8 -9 -25 -5 -40 3 -14 4 -32 1 -40 -5 -13 -10 -13 -36 0
-33 16 -37 23 -46 88 -4 25 -11 44 -15 41 -4 -3 -17 -25 -29 -50 -19 -40 -25
-45 -44 -40 -27 8 -47 33 -47 57 0 19 33 58 50 58 6 0 24 16 41 35 17 19 35
35 41 35 5 0 16 -16 24 -36z m-1073 1 c42 -20 108 -115 177 -250 68 -136 93
-227 92 -342 -1 -75 -5 -94 -31 -148 -25 -50 -43 -71 -87 -101 -56 -38 -58
-39 -148 -38 -80 0 -100 4 -163 32 -87 39 -162 43 -223 12 -57 -29 -123 -101
-161 -175 -19 -36 -36 -65 -39 -65 -3 1 -18 28 -35 62 -37 78 -121 163 -174
178 -44 12 -60 8 -118 -32 -53 -36 -144 -60 -197 -51 -190 29 -300 206 -267
425 14 94 27 130 84 248 44 92 128 214 157 230 19 10 60 14 60 5 0 -2 -20 -35
-44 -72 -212 -329 -203 -581 22 -638 48 -13 81 -14 166 -7 115 10 203 1 246
-24 33 -20 68 -71 81 -118 11 -40 39 -50 39 -13 0 28 27 73 69 113 53 51 120
64 322 63 96 0 183 2 194 7 43 15 88 58 106 101 50 117 2 295 -139 520 -29 46
-52 85 -52 88 0 10 33 5 63 -10z m-1677 -176 c8 -8 14 -20 14 -24 0 -15 89
-94 128 -114 20 -10 62 -24 92 -32 30 -7 56 -14 58 -15 1 -1 -3 -23 -10 -49
l-13 -47 -41 6 c-183 25 -284 144 -283 331 l0 70 21 -55 c11 -30 27 -62 34
-71z m2291 29 c-10 -159 -79 -249 -226 -294 -77 -23 -98 -19 -106 19 -4 17 -9
39 -11 48 -4 13 5 18 38 23 53 8 133 44 175 80 38 32 95 117 114 169 7 20 15
37 17 37 3 0 2 -37 -1 -82z m-1287 -34 c0 -23 31 -64 49 -64 13 0 12 -4 -5
-18 -12 -9 -27 -27 -33 -39 -18 -35 -13 -112 10 -160 11 -23 29 -77 39 -119
10 -42 20 -78 22 -80 11 -11 27 21 47 96 13 47 32 101 42 122 32 62 19 156
-24 180 -21 11 -21 11 -1 18 18 7 33 30 49 75 l7 20 8 -20 c5 -11 9 -34 9 -51
2 -63 72 -246 106 -274 8 -7 15 -16 15 -21 0 -10 25 -41 89 -111 l44 -48 -79
0 c-142 0 -237 -48 -287 -145 -14 -28 -16 -28 -23 -10 -16 43 -61 89 -109 111
-42 20 -66 24 -149 24 l-100 0 30 33 c113 121 214 324 214 432 0 42 11 76 21
69 5 -3 9 -12 9 -20z m95 -34 c14 0 35 5 46 10 24 13 25 2 2 -16 -28 -21 -77
-17 -99 7 -19 22 -19 22 3 10 12 -6 34 -11 48 -11z m42 -74 c24 -21 27 -30 26
-77 -1 -33 -9 -69 -22 -94 -12 -21 -22 -46 -22 -55 -2 -25 -18 62 -18 103 -1
20 -5 37 -11 37 -6 0 -10 -37 -11 -87 l-1 -88 -17 50 c-10 28 -23 63 -29 78
-30 72 2 150 65 156 7 0 24 -10 40 -23z m1534 -64 c4 -18 16 -43 28 -56 25
-26 28 -61 6 -70 -11 -4 -14 -13 -10 -29 10 -37 -17 -53 -49 -30 -24 17 -25
22 -20 83 l5 65 -43 -47 -44 -47 -26 22 c-22 17 -26 28 -21 50 6 30 45 63 63
52 5 -3 25 5 43 19 41 33 59 30 68 -12z m-2575 -92 c27 -13 75 -25 107 -28
l57 -4 0 -70 0 -69 -52 7 c-113 13 -193 77 -217 174 -24 93 -25 90 18 50 21
-20 60 -47 87 -60z m2159 58 c-13 -61 -46 -125 -83 -160 -39 -38 -76 -53 -154
-62 l-48 -6 0 69 0 69 58 4 c67 5 152 44 190 88 34 39 45 38 37 -2z m-2048
-252 c49 0 54 -3 59 -26 3 -14 10 -35 15 -48 13 -32 13 -32 -28 -32 -73 1
-134 41 -181 121 l-22 36 52 -25 c34 -16 71 -25 105 -26z m1959 25 c-41 -78
-124 -135 -189 -129 l-34 3 14 50 14 51 54 0 c36 1 69 9 102 26 26 14 49 26
51 27 1 0 -4 -12 -12 -28z m343 -73 c-1 -24 3 -53 9 -65 18 -33 14 -61 -8 -68
-11 -3 -20 -14 -20 -24 0 -20 -19 -41 -37 -41 -7 0 -19 12 -26 27 -13 24 -12
32 6 75 11 27 17 51 14 54 -3 4 -26 -7 -51 -24 l-45 -30 -15 23 c-20 31 -20
45 0 74 14 19 22 22 54 17 24 -4 43 -1 56 9 10 8 29 15 42 15 21 0 23 -4 21
-42z m-519 -88 l35 0 -25 -20 c-29 -22 -98 -42 -105 -30 -3 5 0 12 5 15 6 4
16 18 21 33 7 19 13 22 21 14 7 -7 28 -12 48 -12z m-1670 -20 c10 -14 17 -27
14 -31 -7 -12 -79 11 -108 34 l-27 22 51 0 c43 -1 55 -5 70 -25z m1825 -130
c4 -6 15 -6 31 0 14 6 37 10 51 10 23 0 25 -3 19 -32 -8 -40 -8 -43 0 -90 5
-33 3 -39 -15 -46 -12 -4 -28 -19 -34 -32 -18 -35 -40 -35 -55 -1 -12 27 -10
34 17 78 17 26 26 50 21 51 -6 2 -31 -6 -56 -18 -49 -24 -59 -21 -69 22 -5 19
-1 32 14 47 22 22 65 28 76 11z m-1648 -152 c110 -163 257 -261 453 -303 96
-20 214 -16 315 10 95 25 233 99 303 161 63 57 152 164 152 183 0 20 15 10 41
-27 15 -20 67 -92 117 -158 l90 -122 -77 -79 c-42 -44 -103 -100 -136 -125
-363 -276 -900 -290 -1302 -32 -63 40 -137 107 -194 175 l-39 47 55 79 c107
151 180 251 182 250 0 -1 18 -28 40 -59z"/>
<path d="M2273 3045 c-12 -9 -27 -32 -32 -52 -25 -89 26 -171 97 -159 51 8 72
32 72 82 0 24 -3 45 -7 47 -5 2 -25 2 -45 0 -29 -4 -38 -10 -38 -24 0 -13 7
-19 21 -19 14 0 19 -5 17 -17 -5 -25 -49 -29 -65 -7 -18 25 -16 89 3 108 19
20 24 20 52 0 23 -16 52 -13 52 6 0 5 -9 19 -20 30 -24 24 -77 26 -107 5z"/>
<path d="M2476 3048 c-10 -37 -38 -199 -35 -201 7 -5 116 -37 126 -37 6 0 13
9 16 19 4 15 -4 21 -39 31 -50 14 -58 22 -49 49 6 19 8 19 47 5 51 -18 48 -18
48 9 0 19 -8 26 -40 36 -30 9 -40 17 -40 32 0 16 4 19 18 14 42 -16 79 -17 85
-1 7 19 6 20 -62 40 -66 19 -71 20 -75 4z"/>
<path d="M2087 3013 c-66 -30 -64 -16 -25 -155 12 -43 27 -78 34 -78 26 0 124
51 124 64 0 24 -15 26 -59 9 -37 -14 -44 -15 -52 -2 -15 23 -11 29 35 49 36
15 44 22 39 39 -6 25 -10 25 -43 6 -33 -19 -60 -19 -60 1 0 8 19 24 44 35 35
15 43 23 39 39 -6 24 -5 25 -76 -7z"/>
<path d="M2645 2905 c-25 -53 -45 -98 -45 -100 0 -3 9 -9 20 -15 18 -9 22 -6
36 30 22 54 44 38 44 -33 0 -36 5 -54 18 -63 29 -22 32 -16 26 41 -6 45 -4 55
8 55 24 0 48 34 48 67 0 30 -17 50 -78 92 l-32 23 -45 -97z m97 8 c37 -33 12
-58 -31 -31 -15 9 -17 16 -10 30 12 22 18 22 41 1z"/>
<path d="M1937 2935 c-17 -12 -16 -16 12 -64 17 -28 28 -51 25 -51 -3 0 -29
13 -58 29 -40 23 -56 27 -65 18 -17 -17 -14 -28 33 -111 54 -94 52 -92 71 -76
13 11 11 19 -16 66 l-30 54 56 -30 c46 -24 59 -27 75 -18 18 12 18 13 0 49
-11 20 -34 62 -52 92 -30 49 -36 54 -51 42z"/>
<path d="M2833 2808 c-87 -119 -85 -115 -67 -133 15 -14 21 -9 75 62 63 83 67
94 45 112 -12 10 -22 2 -53 -41z"/>
<path d="M2316 2625 c-3 -8 -17 -20 -31 -27 -18 -8 -25 -19 -25 -40 0 -23 4
-28 25 -28 25 0 25 -1 25 -80 0 -79 0 -80 -25 -80 -21 0 -25 -5 -25 -30 l0
-30 85 0 85 0 0 30 c0 25 -4 30 -25 30 l-25 0 0 135 0 135 -29 0 c-16 0 -31
-6 -35 -15z"/>
<path d="M2964 1236 c-48 -21 -87 -78 -87 -128 l0 -41 -15 29 c-19 38 -17 37
-41 24 -26 -13 -26 -21 -1 -72 11 -23 20 -43 20 -45 0 -2 -25 13 -55 33 -53
35 -55 36 -80 20 -14 -9 -25 -21 -25 -26 0 -6 13 -38 28 -73 16 -34 35 -77 43
-94 16 -37 16 -37 45 -20 l22 12 -29 59 c-16 33 -28 61 -26 62 2 2 28 -14 58
-36 58 -42 74 -47 101 -26 17 12 16 17 -13 76 -31 64 -34 90 -5 46 43 -66 122
-64 177 5 16 20 29 42 29 48 0 12 -52 90 -60 90 -3 1 -22 -14 -43 -32 -35 -29
-37 -34 -24 -52 13 -17 17 -17 31 -6 13 11 19 12 29 2 9 -10 8 -15 -7 -27 -46
-33 -96 -1 -96 62 0 34 20 57 63 70 28 9 29 10 10 31 -16 20 -21 21 -49 9z"/>
<path d="M1647 1178 c-78 -111 -77 -110 -66 -130 14 -25 36 -23 55 7 l16 25
30 -25 c37 -31 65 -32 96 -2 l24 22 -13 -30 c-7 -16 -16 -34 -20 -40 -4 -5
-14 -26 -22 -46 l-15 -36 62 -37 c35 -20 66 -36 69 -36 3 0 11 9 17 20 9 17 5
22 -30 40 -41 21 -45 27 -34 54 5 14 11 13 46 -6 33 -19 40 -20 48 -8 16 26
11 37 -25 54 -34 17 -41 26 -29 39 5 4 75 -24 91 -37 0 0 -9 -41 -22 -91 -13
-49 -23 -91 -22 -92 1 -1 14 -4 28 -8 24 -6 27 -3 41 47 l15 53 9 -35 c14 -47
43 -51 68 -10 10 17 19 30 21 28 2 -2 -3 -29 -12 -61 -8 -33 -13 -60 -11 -62
2 -2 15 -6 29 -10 25 -6 26 -5 52 102 14 59 23 111 19 115 -4 3 -19 9 -33 13
-22 5 -29 0 -54 -37 l-29 -43 -9 45 c-11 57 -20 74 -42 78 -10 2 -50 24 -90
48 -40 24 -75 44 -79 44 -3 0 -6 -8 -6 -17 0 -10 -8 -2 -18 18 -15 32 -90 109
-105 109 -3 0 -26 -28 -50 -62z m98 -46 c3 -8 -1 -22 -9 -30 -12 -13 -18 -13
-30 -2 -19 15 -20 32 -5 47 14 14 35 7 44 -15z"/>
<path d="M2580 1011 c-24 -6 -26 -12 -36 -116 -6 -61 -12 -105 -13 -98 -1 8
-16 10 -50 6 l-49 -6 -7 92 c-6 74 -11 91 -24 91 -38 -1 -44 -14 -37 -96 4
-44 10 -94 13 -113 l6 -33 71 6 c103 10 136 22 136 51 0 15 7 26 20 29 11 3
29 8 39 11 14 4 21 0 26 -15 7 -21 30 -26 54 -11 14 9 12 17 -12 56 -54 88
-100 155 -105 154 -4 -1 -18 -4 -32 -8z m43 -105 c15 -22 15 -24 -3 -29 -17
-4 -20 0 -20 24 0 35 3 36 23 5z"/>
<path d="M2209 933 c-24 -55 -69 -171 -69 -178 0 -3 13 -5 29 -5 21 0 32 6 36
21 5 16 14 20 43 17 30 -2 38 -8 40 -25 3 -19 10 -23 37 -23 l34 0 -13 43 c-8
23 -21 71 -31 107 -10 36 -19 71 -21 78 -2 6 -17 12 -34 12 -27 0 -33 -6 -51
-47z m60 -80 c1 -7 -8 -13 -18 -13 -17 0 -18 3 -8 30 10 26 13 28 19 13 3 -10
7 -24 7 -30z"/>
</g>
</svg>
