<svg xmlns="http://www.w3.org/2000/svg" viewBox="0 0 79.25 23.87"><defs><style>.cls-1,.cls-2,.cls-4{fill:#231f20;}.cls-2{font-size:18px;}.cls-2,.cls-4{font-family:NotoSans-Bold, Noto Sans;font-weight:700;}.cls-3{letter-spacing:0.04em;}.cls-4{font-size:10px;}</style></defs><title>Asset 4</title><g id="Layer_2" data-name="Layer 2"><g id="Layer_1-2" data-name="Layer 1"><path class="cls-1" d="M6.45,0,0,3.73v7.45L4.92,14a1.78,1.78,0,1,0,1.53-2.67,3.9,3.9,0,1,1,1.9-7.3h0l4.56,2.63V3.73Z"/><path class="cls-1" d="M6.45,5.67a1.78,1.78,0,0,0,0,3.56,3.9,3.9,0,1,1-1.89,7.3h0L0,13.9v3l6.45,3.73,6.46-3.73V9.4L8,6.56A1.77,1.77,0,0,0,6.45,5.67Z"/><text class="cls-2" transform="translate(14.37 16.79)">ER<tspan class="cls-3" x="21.96" y="0">VI</tspan><tspan x="42.11" y="0">S</tspan></text><text class="cls-4" transform="translate(67.02 16.79)">.id</text></g></g></svg>